PathFileType	4	(X/Y/Z)	OpenSim_Sub07_EMGStiffKnee_Magnet.trc
DataRate	CameraRate	NumFrames	NumMarkers	Units	OrigDataRate	OrigDataStartFrame	OrigNumFrames
100	100	37	8	m	100	3695	7388
Frame#	Time	torso_imu_offset_imu	pelvis_imu_offset_imu	tibia_r_imu_offset_imu	femur_r_imu_offset_imu	tibia_l_imu_offset_imu	femur_l_imu_offset_imu	toes_r_imu_offset_imu	toes_l_imu_offset_imu
				X1	Y1	Z1	X2	Y2	Z2	X3	Y3	Z3	X4	Y4	Z4	X5	Y5	Z5	X6	Y6	Z6	X7	Y7	Z7	X8		Y8	Z8	

3695	36.94000000	0.93715618	0.17531408	0.05754286	-0.69578568	0.12628911	-0.66481071	-0.54684617	-0.61942460	0.08357077	-0.80095738	-0.31061885	-0.09267120	-0.32145876	0.78595200	-0.09075036	-0.70373847	0.28403645	0.41827905	-0.67174262	-0.33899533	-0.40179100	-0.84821458	0.01439508	-0.11324638
3696	36.95000000	0.93876740	0.17665935	0.05984746	-0.68954135	0.12359443	-0.66391496	-0.54444259	-0.62452291	0.07379420	-0.79907313	-0.32100497	-0.09610671	-0.34416772	0.77787111	-0.07001297	-0.70421200	0.28327811	0.41361771	-0.67886076	-0.34667164	-0.40878989	-0.84840414	-0.00118672	-0.12319561
3697	36.96000000	0.94144635	0.17733335	0.06289380	-0.69122743	0.12360827	-0.66057404	-0.54631274	-0.62767256	0.07067623	-0.79836992	-0.32574086	-0.10384501	-0.36471296	0.77546950	-0.05783972	-0.70682581	0.28240304	0.40769858	-0.68621146	-0.35023573	-0.40889779	-0.84204150	-0.01670136	-0.13703969
3698	36.97000000	0.93720235	0.17408067	0.06548598	-0.69239128	0.11721771	-0.66616892	-0.54072688	-0.62987621	0.07291106	-0.79242704	-0.32941951	-0.11423572	-0.38123361	0.76134355	-0.03794593	-0.70800065	0.28058038	0.40800181	-0.69211131	-0.35027889	-0.41797148	-0.83817336	-0.03472309	-0.15050373
3699	36.98000000	0.94103564	0.17020980	0.06332910	-0.68791134	0.11642764	-0.67022158	-0.53899255	-0.63090880	0.06480282	-0.79059306	-0.33555675	-0.11799597	-0.40149768	0.75130962	-0.02531766	-0.71348738	0.27561677	0.40356825	-0.69982327	-0.35364504	-0.41798248	-0.83547846	-0.04745983	-0.16481251
3700	36.99000000	0.94401353	0.17310673	0.06859129	-0.69175669	0.10798541	-0.67051810	-0.54055577	-0.63750191	0.06233973	-0.78900458	-0.34254123	-0.12337091	-0.42605524	0.73670731	-0.01267067	-0.71913251	0.26757030	0.39879826	-0.70859592	-0.35782884	-0.41362043	-0.83364247	-0.05798675	-0.17884681
3701	37	0.93981104	0.17080112	0.07437742	-0.68880792	0.10637694	-0.67143346	-0.53641223	-0.64360100	0.06111661	-0.78354900	-0.34631570	-0.13234451	-0.44451888	0.71773856	0.00225129	-0.71883138	0.26476381	0.39909059	-0.71239645	-0.36222376	-0.41380716	-0.83364129	-0.06475724	-0.19822704
3702	37.01000000	0.94017262	0.16713539	0.07812939	-0.68378229	0.10430328	-0.67496103	-0.53192038	-0.64167227	0.05947287	-0.77809011	-0.35510063	-0.12919385	-0.46108596	0.70705617	0.00554544	-0.72694265	0.26232636	0.39695877	-0.72346715	-0.36597061	-0.41507284	-0.82683914	-0.07292736	-0.21939749
3703	37.02000000	0.93861442	0.16509992	0.08080035	-0.68793295	0.09940824	-0.67712101	-0.52545724	-0.64331329	0.05086046	-0.77554363	-0.36318382	-0.13227932	-0.48122692	0.69438658	0.00756834	-0.73067384	0.26122338	0.39060424	-0.72998712	-0.37252717	-0.41583862	-0.82237532	-0.07934027	-0.22434287
3704	37.03000000	0.94248215	0.16404889	0.08410140	-0.68342050	0.09917623	-0.67592753	-0.52788735	-0.64479973	0.05306200	-0.76684702	-0.36143729	-0.13355048	-0.50192520	0.68165729	0.01403513	-0.73205809	0.25418441	0.38409290	-0.73773865	-0.37685242	-0.41666574	-0.82134114	-0.08547675	-0.25101636
3705	37.04000000	0.94187766	0.16335799	0.08450287	-0.68461498	0.09433415	-0.68142570	-0.52737781	-0.64869227	0.05507382	-0.76713927	-0.37007032	-0.13280328	-0.52222161	0.66786581	0.01694278	-0.73822488	0.24266223	0.38407283	-0.74838398	-0.37582008	-0.41377892	-0.81150478	-0.09358782	-0.27747751
3706	37.05000000	0.94123652	0.16114378	0.09106528	-0.68238307	0.09449076	-0.68108603	-0.52269154	-0.65083674	0.04812992	-0.76769945	-0.38460348	-0.13331243	-0.53379023	0.65535911	0.02040910	-0.73818628	0.23635160	0.38132772	-0.75407699	-0.37718217	-0.40787738	-0.80419513	-0.09819196	-0.29653491
3707	37.06000000	0.93881197	0.15785909	0.09151458	-0.67913124	0.09191950	-0.68458429	-0.51775727	-0.65109366	0.05019705	-0.76499184	-0.38358023	-0.13512261	-0.54975576	0.64136170	0.02610678	-0.74376910	0.22732253	0.38121347	-0.75475569	-0.37463863	-0.40488250	-0.79606334	-0.10059026	-0.32148819
3708	37.07000000	0.93718832	0.15531163	0.09248294	-0.68030969	0.09520966	-0.68414818	-0.51700513	-0.65610031	0.05016418	-0.76202509	-0.38904368	-0.13428707	-0.56772229	0.62884903	0.02708593	-0.74513049	0.21741769	0.37740522	-0.76045042	-0.37787883	-0.40667594	-0.78761536	-0.10898806	-0.33761737
3709	37.08000000	0.93960189	0.15475813	0.09503032	-0.68348972	0.09381694	-0.68483820	-0.52017596	-0.66153771	0.04822485	-0.75355500	-0.40184734	-0.13520219	-0.58121639	0.61416778	0.02961630	-0.74760344	0.20859804	0.38634038	-0.76516823	-0.37685175	-0.40236984	-0.77534897	-0.11176344	-0.35279276
3710	37.09000000	0.94194348	0.15315457	0.09663265	-0.68112903	0.08372046	-0.68666360	-0.51470708	-0.65773779	0.05674459	-0.75092071	-0.41003234	-0.13549964	-0.59862772	0.59934159	0.03082787	-0.75143203	0.19918819	0.38360013	-0.76843690	-0.37123070	-0.39545911	-0.75993342	-0.11946784	-0.36949547
3711	37.10000000	0.93889959	0.15289336	0.10115734	-0.67805882	0.08232003	-0.68662548	-0.51227703	-0.66203394	0.04750713	-0.74807748	-0.41194350	-0.13351236	-0.60941946	0.58267616	0.03549482	-0.75323249	0.18260339	0.38044117	-0.77282465	-0.37518952	-0.38602453	-0.75274158	-0.13313479	-0.38320862
3712	37.11000000	0.94300083	0.15006733	0.10618331	-0.68273592	0.08147374	-0.68939568	-0.51098353	-0.66530623	0.04243509	-0.74269369	-0.41657027	-0.13307387	-0.62646048	0.56495507	0.04027350	-0.75716464	0.16972971	0.37349129	-0.76850612	-0.37506975	-0.38201423	-0.74647776	-0.14122052	-0.39868623
3713	37.12000000	0.94514398	0.14999503	0.10987080	-0.67886273	0.08045097	-0.68688315	-0.50773491	-0.66681119	0.04850920	-0.73630464	-0.42588013	-0.13515778	-0.63681238	0.54848618	0.04414157	-0.75905427	0.16346862	0.37679139	-0.76991010	-0.37339257	-0.38419369	-0.72858479	-0.15014998	-0.41059042
3714	37.13000000	0.93710897	0.15091324	0.10918258	-0.67402894	0.07881064	-0.69317922	-0.50097491	-0.67058456	0.05122943	-0.73425561	-0.43002219	-0.13660390	-0.64745611	0.53559849	0.04851808	-0.76387139	0.15821624	0.37447531	-0.77346349	-0.36908115	-0.37881205	-0.71788987	-0.16272288	-0.42306998
3715	37.14000000	0.93718047	0.14833210	0.10694735	-0.67620440	0.07564766	-0.69365140	-0.49323167	-0.67697665	0.04637705	-0.73277114	-0.43479109	-0.13703576	-0.66184867	0.51920627	0.05249624	-0.76253651	0.14669184	0.37148894	-0.77574080	-0.36621080	-0.37120598	-0.70775657	-0.17505031	-0.43441475
3716	37.15000000	0.94116819	0.14552118	0.11263758	-0.67537729	0.07666772	-0.69148024	-0.49761167	-0.67876988	0.04566150	-0.72825511	-0.44831550	-0.14373294	-0.66735444	0.50441260	0.05728352	-0.76242411	0.13607007	0.37646155	-0.77204120	-0.36632530	-0.36958048	-0.69378657	-0.18380077	-0.44510751
3717	37.16000000	0.94404519	0.14717726	0.11272490	-0.67337367	0.08058587	-0.69654975	-0.48814308	-0.68111540	0.04539135	-0.72634281	-0.44736232	-0.14762743	-0.67638376	0.48310692	0.06018772	-0.76270346	0.12955394	0.37284562	-0.76856529	-0.35815414	-0.36808831	-0.68137356	-0.19271204	-0.45598831
3718	37.17000000	0.94092731	0.14649615	0.11363496	-0.67460255	0.08105594	-0.69452332	-0.48677262	-0.68621653	0.04760107	-0.71949613	-0.44853465	-0.14609416	-0.68415800	0.46631578	0.06477018	-0.76673338	0.12633287	0.37270330	-0.76833250	-0.35649933	-0.36519678	-0.67714805	-0.20296996	-0.45830168
3719	37.18000000	0.93690557	0.14530854	0.11125705	-0.67242882	0.07894540	-0.69745425	-0.48415056	-0.68892635	0.05077132	-0.71422360	-0.45552246	-0.14540569	-0.69473846	0.45279980	0.06813992	-0.76726871	0.12264195	0.37392961	-0.77044261	-0.36057157	-0.36462930	-0.66533005	-0.20947825	-0.46781183
3720	37.19000000	0.93929655	0.15236410	0.10775207	-0.67326872	0.07899153	-0.69407063	-0.47981545	-0.69185530	0.05074502	-0.71295294	-0.45953535	-0.15777874	-0.70679420	0.43691339	0.07016175	-0.76371567	0.11720717	0.37196510	-0.76785962	-0.35776637	-0.35816040	-0.65552695	-0.22135518	-0.48283467
3721	37.20000000	0.94013277	0.15098429	0.11093188	-0.67146762	0.07614843	-0.69331234	-0.47662894	-0.69670738	0.04930854	-0.70946884	-0.45910858	-0.16491096	-0.71332476	0.42137500	0.07681718	-0.76829174	0.11440458	0.37614796	-0.76631874	-0.35548613	-0.35553431	-0.64419985	-0.22864381	-0.48660200
3722	37.21000000	0.94458172	0.15097154	0.11581589	-0.67264477	0.08021557	-0.69595554	-0.46645062	-0.70224712	0.05116274	-0.70528507	-0.46767710	-0.16222813	-0.72203809	0.40721937	0.08504167	-0.76977351	0.10719633	0.37536924	-0.76699358	-0.35373384	-0.35643784	-0.63605800	-0.23714999	-0.48872840
3723	37.22000000	0.94031277	0.14753151	0.11584661	-0.67316183	0.08346269	-0.69555826	-0.46372657	-0.70348448	0.05017178	-0.70185395	-0.46878983	-0.16174062	-0.72998956	0.39256367	0.08939282	-0.76767671	0.10469165	0.37531870	-0.76744599	-0.35193982	-0.35658910	-0.62982939	-0.24016885	-0.49564316
3724	37.23000000	0.93672617	0.14919645	0.11613222	-0.66786809	0.08602940	-0.69409392	-0.45315069	-0.71116987	0.05045036	-0.70422141	-0.46680745	-0.17054900	-0.73584256	0.38057890	0.09195348	-0.76764274	0.10273165	0.37718792	-0.76904539	-0.35278013	-0.35956840	-0.62056706	-0.25547320	-0.49902704
3725	37.24000000	0.93537773	0.15419278	0.11181863	-0.66970632	0.09110362	-0.69091164	-0.44868868	-0.71488816	0.05823708	-0.70316454	-0.47211995	-0.17228921	-0.74138757	0.36746621	0.10021437	-0.76345608	0.10451427	0.38162556	-0.75886449	-0.35207657	-0.36061589	-0.60959081	-0.26642083	-0.49972412
3726	37.25000000	0.93558780	0.15244087	0.11284549	-0.67279882	0.09231438	-0.68916098	-0.44122794	-0.71955434	0.05141447	-0.69883812	-0.47582193	-0.16968278	-0.74695253	0.34966056	0.10760878	-0.76259574	0.09966009	0.38172925	-0.75838754	-0.35203041	-0.35881150	-0.59966630	-0.27528303	-0.50216442
3727	37.26000000	0.93617577	0.15035700	0.10821068	-0.67621305	0.09150660	-0.68875617	-0.42926627	-0.72564868	0.05477358	-0.69425345	-0.47460438	-0.18022369	-0.75294225	0.33921591	0.11524124	-0.76485506	0.09412654	0.38550499	-0.76852024	-0.34916283	-0.35637500	-0.58793098	-0.28785310	-0.51476650
3728	37.27000000	0.93424618	0.15374997	0.10714374	-0.67897360	0.09805356	-0.69286548	-0.42495280	-0.72985264	0.05764086	-0.69606791	-0.47279651	-0.18032444	-0.75296511	0.32546661	0.12122902	-0.75773553	0.09402509	0.39354391	-0.76505577	-0.35360169	-0.35866626	-0.58177726	-0.30458024	-0.51782918
3729	37.28000000	0.93577790	0.15745623	0.10081936	-0.67832433	0.10154675	-0.68285385	-0.40973141	-0.73663026	0.05429774	-0.69749219	-0.47358011	-0.18149094	-0.75621336	0.31845176	0.12809230	-0.75412286	0.09777875	0.39877085	-0.76185049	-0.35438493	-0.35283193	-0.57700905	-0.31582006	-0.51444664
3730	37.29000000	0.93994910	0.15489590	0.09690883	-0.67649717	0.10870263	-0.68572632	-0.39699662	-0.73835040	0.05848832	-0.69694388	-0.47325734	-0.18748583	-0.75748268	0.31615550	0.12954616	-0.74787698	0.10062361	0.40316946	-0.76949236	-0.35618250	-0.35024456	-0.56806331	-0.32427112	-0.51560023
3731	37.30000000	0.93704132	0.15675561	0.09556814	-0.68337394	0.11589830	-0.68760261	-0.38991181	-0.74444542	0.05708405	-0.69245338	-0.47758889	-0.18393156	-0.75845928	0.31180612	0.13044430	-0.74168230	0.10004090	0.40279605	-0.77514704	-0.35758718	-0.35220684	-0.57311985	-0.33092225	-0.50390035
